<?xml version="1.0" standalone="no"?>
<!DOCTYPE svg PUBLIC "-//W3C//DTD SVG 20010904//EN"
 "http://www.w3.org/TR/2001/REC-SVG-20010904/DTD/svg10.dtd">
<svg version="1.0" xmlns="http://www.w3.org/2000/svg"
 width="500.000000pt" height="500.000000pt" viewBox="0 0 500.000000 500.000000"
 preserveAspectRatio="xMidYMid meet">
<metadata>
Created by potrace 1.14, written by Peter Selinger 2001-2017
</metadata>
<g transform="translate(0.000000,500.000000) scale(0.100000,-0.100000)"
fill="#000000" stroke="none">
<path d="M2302 4296 c-58 -9 -81 -17 -108 -41 -28 -25 -57 -74 -70 -120 -6
-21 -33 -133 -39 -161 -10 -46 -10 -48 -17 -59 -4 -6 -60 -9 -145 -8 -76 2
-165 3 -198 3 -61 0 -179 -25 -202 -43 -10 -7 -13 -4 -13 10 0 11 3 23 8 27
15 16 7 52 -16 74 l-25 24 -46 -50 -46 -49 -35 23 c-75 51 -72 44 -54 103 18
62 14 81 -20 81 -16 0 -36 -14 -59 -42 l-35 -42 -46 24 -46 25 6 45 c11 89 10
94 -15 106 -20 10 -28 10 -47 -4 -13 -9 -24 -22 -24 -28 0 -7 -8 -21 -18 -33
l-17 -21 -64 23 c-53 18 -65 26 -67 47 -8 56 -14 68 -39 73 -33 6 -50 -19 -60
-86 -5 -38 -12 -50 -31 -59 -21 -10 -28 -7 -58 25 -69 73 -105 38 -84 -80 8
-49 2 -73 -18 -73 -8 0 -14 -5 -14 -11 0 -7 -8 -9 -22 -4 -78 24 -98 23 -119
-3 l-19 -25 22 -26 c13 -14 26 -27 29 -29 36 -17 42 -29 28 -60 -13 -31 -15
-32 -67 -25 -42 5 -56 2 -72 -12 -29 -26 -25 -36 30 -78 45 -34 53 -47 49 -74
-1 -5 -22 -14 -48 -21 -56 -17 -70 -28 -64 -50 4 -16 64 -42 97 -42 14 0 26
-21 26 -46 0 -8 -16 -24 -35 -35 -62 -37 -40 -83 41 -88 33 -1 53 -8 65 -23
17 -19 17 -23 2 -60 -14 -36 -14 -41 0 -56 13 -13 21 -13 42 -4 38 18 57 15
87 -13 26 -24 27 -26 11 -53 -19 -33 -11 -82 13 -82 8 0 28 7 44 15 17 9 30
13 30 9 0 -4 6 -1 14 5 11 9 19 9 35 -1 24 -15 26 -29 9 -46 -7 -7 -9 -12 -5
-12 4 0 3 -8 -2 -18 -6 -12 -5 -25 4 -42 13 -25 16 -26 48 -9 14 8 17 5 17
-13 1 -53 8 -156 15 -203 18 -136 88 -358 120 -385 8 -7 15 -18 15 -24 1 -12
45 -66 55 -66 7 0 32 -20 53 -43 54 -59 74 -85 87 -109 12 -22 71 -71 180
-150 6 -4 26 -20 45 -36 19 -16 46 -35 59 -42 58 -30 84 -61 87 -107 2 -21 4
-45 5 -53 1 -8 5 -19 9 -25 14 -19 -8 -55 -35 -56 -36 -2 -49 -6 -131 -45 -95
-45 -156 -168 -117 -235 10 -16 20 -29 23 -29 4 0 16 -9 28 -20 27 -25 89 -60
107 -60 8 0 18 -7 22 -15 5 -8 24 -26 43 -40 45 -33 93 -33 126 0 35 35 46 32
38 -13 -4 -20 -7 -46 -6 -57 5 -58 11 -87 22 -100 7 -8 9 -15 4 -15 -5 0 -1
-5 9 -11 9 -5 17 -16 17 -22 0 -15 78 -67 100 -67 8 0 24 -13 34 -29 24 -35
119 -72 166 -65 26 5 32 2 37 -15 3 -12 11 -21 18 -21 6 0 20 -9 30 -20 10
-11 23 -20 28 -20 6 0 18 -6 26 -13 18 -15 106 -45 136 -46 95 -5 133 18 198
118 24 38 55 49 63 23 3 -9 10 -25 15 -34 5 -10 9 -25 9 -35 0 -9 3 -14 6 -10
3 3 18 -5 33 -19 55 -51 135 -77 171 -54 11 7 23 1 47 -22 53 -52 115 -75 192
-72 81 4 91 5 91 16 0 4 5 8 10 8 13 0 34 16 72 57 l30 31 58 -29 c81 -40 149
-40 211 0 56 36 78 57 109 103 25 38 50 50 50 24 0 -20 95 -94 150 -118 37
-16 72 -22 175 -29 56 -3 202 16 272 37 49 14 95 27 104 29 10 2 35 15 58 29
22 14 45 26 49 26 15 0 104 72 156 125 69 72 105 123 101 145 -2 11 0 22 4 24
6 4 -11 140 -23 181 -20 69 -74 142 -146 200 -39 30 -150 96 -170 100 -9 2
-34 8 -56 14 -21 5 -51 13 -66 16 -24 4 -26 8 -19 28 11 29 24 112 24 162 1
92 -22 210 -69 357 -9 26 -17 53 -18 60 -3 14 -25 64 -59 138 -12 25 -21 47
-22 50 -1 3 -14 30 -30 60 -16 30 -41 80 -57 110 -58 115 -114 201 -223 344
-33 43 -70 92 -82 109 -26 35 -227 235 -262 259 -26 19 -31 4 46 148 84 157
96 249 47 340 -35 65 -133 169 -189 199 -22 12 -78 46 -125 76 -47 30 -88 54
-91 55 -4 0 -49 20 -100 44 -109 50 -153 66 -269 99 -202 57 -327 72 -458 53z
m206 -317 c1 -1 5 -2 10 -3 4 -1 16 -7 27 -13 11 -5 38 -16 60 -23 22 -7 49
-18 60 -23 11 -6 22 -12 25 -12 3 -1 16 -6 30 -12 14 -6 28 -10 31 -9 3 0 13
-7 23 -16 10 -10 25 -18 35 -18 9 0 23 -6 30 -12 6 -7 15 -13 19 -14 15 -2 48
-19 96 -51 28 -18 54 -33 59 -33 15 0 97 -74 104 -95 9 -26 4 -77 -9 -93 -9
-10 -14 -10 -27 1 -26 23 -421 218 -481 238 -30 10 -91 27 -135 39 -44 11 -86
23 -93 25 -14 5 40 120 61 128 11 4 68 2 75 -4z"/>
</g>
</svg>
